<svg xmlns="http://www.w3.org/2000/svg" viewBox="0 0 138.583 137.766"><title>jacques_logo</title><path d="M151.082,106.593a114.916,114.916,0,0,1-9.007,24.444,3.755,3.755,0,0,1-3.933,1.886l-20.845-3.65a3.755,3.755,0,0,1-3.059-3.109,86.545,86.545,0,0,1-.77-13.46l8.12-36.362c5.032-9.3,10.945-16.244,11.695-20.524,1.291-7.375-1.759-11.734.186-22.843a10.345,10.345,0,0,1,10.2-9.253,13.016,13.016,0,0,1,3.7.3c2.545.78,9.908,3.622,8.295,12.833-1.917,10.948-6.3,14.235-7.585,21.549s8.886,26.448,3,48.184Z" transform="translate(-19.176 -21.771)" style="fill:#dfc49c"/><path d="M145.533,105.621a114.924,114.924,0,0,1-9.007,24.445,3.756,3.756,0,0,1-3.933,1.885l-15.3-2.678a3.755,3.755,0,0,1-3.059-3.109,86.545,86.545,0,0,1-.77-13.46l8.12-36.362c5.032-9.3,10.945-16.244,11.695-20.524,1.291-7.375-1.759-11.734.186-22.843a10.345,10.345,0,0,1,10.2-9.253l.018,0a10.329,10.329,0,0,1,6.43,12.164c-1.917,10.948-6.305,14.235-7.585,21.548s8.886,26.449,3,48.184Z" transform="translate(-19.176 -21.771)" style="fill:#ffe0b2"/><rect x="132.792" y="47.05" width="16.428" height="16.428" transform="translate(-7.533 -45.259) rotate(9.93)" style="fill:#cc1b1b"/><path d="M130.09,62.536c.489.1.98.194,1.475.282,3.885.693,7.784,1.317,11.678,1.963-.653-3.062-1.025-5.558-.712-7.344.7-3.976,2.311-6.767,3.947-10.24-4.738-.6-9.455-.878-13.531-3.4.339,4.309,1.1,7.637.336,12.024C132.971,57.6,131.756,59.851,130.09,62.536Z" transform="translate(-19.176 -21.771)" style="fill:#d33c55"/><path d="M151.539,69.409c-2.291-9.833-2.574-10.674,1.338-18.657a45.378,45.378,0,0,0,4.638-13.568c3.02-17.25-22.88-21.755-25.895-4.533A45.717,45.717,0,0,0,131.374,47c1.281,11.643-.64,10.045-9.514,25.065l1.755,4.5c2.462-4.472,5.008-8.232,7.187-11.65l16.513,2.891c2.928,12.937,5.7,24.435,1.955,38.3a113.6,113.6,0,0,1-8.828,24.026,1.876,1.876,0,0,1-1.976.945l-20.846-3.65a1.878,1.878,0,0,1-1.526-1.54,83.483,83.483,0,0,1-.748-12.471c.073-.079.139-.164.212-.243-.072.037-.148.068-.223.1a4.485,4.485,0,0,1-1.023.839,4.763,4.763,0,0,1-1.817,1.93,4.938,4.938,0,0,1-.858,1.091,78.35,78.35,0,0,0,.747,9.332,5.634,5.634,0,0,0,4.589,4.66l20.845,3.649a5.632,5.632,0,0,0,5.905-2.838,117.045,117.045,0,0,0,9.172-24.852C156.878,92.338,153.794,79.084,151.539,69.409Zm-5.034-5.557-13.589-2.379c2.759-4.824,2.989-7.6,2.193-14.867l14.385,2.518a31.491,31.491,0,0,0-3.264,8.961A17.3,17.3,0,0,0,146.505,63.852ZM151.14,45.6l-16.384-2.869a39.449,39.449,0,0,1,.563-9.433c1.562-8.922,9.928-7.793,10.867-7.629.37.065,9.23,1.725,7.629,10.868A39.319,39.319,0,0,1,151.14,45.6Z" transform="translate(-19.176 -21.771)"/><polygon points="71.12 106.216 71.118 106.216 71.117 106.216 71.12 106.216"/><path d="M143.586,82.6a1.878,1.878,0,0,0-1.268,2.332,39.458,39.458,0,0,1-2.6,24.923,1.878,1.878,0,1,0,3.431,1.527,42.526,42.526,0,0,0,2.767-27.52,1.878,1.878,0,0,0-2.332-1.262Z" transform="translate(-19.176 -21.771)"/><path d="M69.844,47.242h52.608a1.879,1.879,0,1,0,0-3.755H69.844a1.879,1.879,0,1,0,0,3.755Z" transform="translate(-19.176 -21.771)"/><path d="M59.742,56.631H90.774a1.887,1.887,0,1,0,0-3.755H59.742a1.887,1.887,0,1,0,0,3.755Z" transform="translate(-19.176 -21.771)"/><path d="M120.3,56.631a1.881,1.881,0,1,0,0-3.755H109.308a1.881,1.881,0,1,0,0,3.755Z" transform="translate(-19.176 -21.771)"/><path d="M90.473,37.854h26.841a1.879,1.879,0,1,0,0-3.756H90.473a1.879,1.879,0,1,0,0,3.756Z" transform="translate(-19.176 -21.771)"/><path d="M50.61,65.014a12.859,12.859,0,1,1-18.185-.159A12.859,12.859,0,0,1,50.61,65.014Z" transform="translate(-19.176 -21.771)" style="fill:#c7daff"/><circle cx="111.682" cy="120.629" r="12.859" style="fill:#c7daff"/><circle cx="81.8" cy="71.872" r="25.717" style="fill:#e04617"/><ellipse cx="95.582" cy="94.129" rx="22.225" ry="21.761" transform="translate(-57.744 72.211) rotate(-44.498)" style="fill:#e55d28"/><path d="M127.3,79.236a30.011,30.011,0,0,0-53.342,1.356L58.547,75.016A17.138,17.138,0,0,0,29.421,61.8h0a17.145,17.145,0,1,0,26.5,21.386L71.366,88.77a30,30,0,0,0,41.471,32.424l5.7,9.3a17.152,17.152,0,1,0,7.31-4.477l-5.7-9.3c.636-.529,1.259-1.08,1.86-1.671A30.1,30.1,0,0,0,130.3,87.277m-5.446,49.008a8.572,8.572,0,1,1-.106,12.123A8.583,8.583,0,0,1,124.85,136.285ZM85.689,108.664A21.431,21.431,0,0,1,80.5,87.3v0a21.435,21.435,0,1,1,5.189,21.367ZM35.323,80.035a8.573,8.573,0,1,1,12.123.106A8.582,8.582,0,0,1,35.323,80.035Z" transform="translate(-19.176 -21.771)"/><path d="M114.838,84.351c-1.038.089-1.628.791-1.317,1.568a20.578,20.578,0,0,1-2.615,18.182,1.116,1.116,0,0,0,.2,1.419,2.668,2.668,0,0,0,1.805.793,1.763,1.763,0,0,0,1.585-.631,22.223,22.223,0,0,0,2.782-20.09,2.479,2.479,0,0,0-2.444-1.241Z" transform="translate(-19.176 -21.771)"/><path d="M38.335,131.853l4.719-13.336H33.769L29,131.751a10.83,10.83,0,0,0-6.925,2.128,7.56,7.56,0,0,0-2.9,6.284,7.286,7.286,0,0,0,1.488,4.592,5.059,5.059,0,0,0,4.18,2.077,11.783,11.783,0,0,0,6.669-1.873,10.812,10.812,0,0,0,4.206-5.488l1.257-3.514h5.412q5.718,0,6.925-4.1ZM25.2,142.984a3.191,3.191,0,0,1-1-2.616,4.662,4.662,0,0,1,.949-2.911,3.863,3.863,0,0,1,2.565-1.5Z" transform="translate(-19.176 -21.771)" style="fill:#009245"/><path d="M77.888,131.853a5.177,5.177,0,0,1-2.36,3.1,7.194,7.194,0,0,1-3.821,1H56.266a16.591,16.591,0,0,1-7.412-1.488q-3.8-1.872-3.8-5.642a7.112,7.112,0,0,1,.052-.847,9.319,9.319,0,0,1,4.77-7.181,16.673,16.673,0,0,1,8.848-2.282h6.464a5.366,5.366,0,0,1,3.719,1.384,4.383,4.383,0,0,1,1.539,3.386,4.472,4.472,0,0,1-1.552,3.436,5.32,5.32,0,0,1-3.706,1.411,5.237,5.237,0,0,1-3.707-1.423,4.491,4.491,0,0,1-1.5-3.476v-.615h-3.1l-2,5.669a3.894,3.894,0,0,0-.257,1.308q0,2.256,3.565,2.256Z" transform="translate(-19.176 -21.771)" style="fill:#009245"/><path d="M108.291,131.853a5.13,5.13,0,0,1-2.949,3.334,7.939,7.939,0,0,1-3.463.77h-5.36L92.9,146.472h-1.95a5.248,5.248,0,0,1-3.539-1.333,4.523,4.523,0,0,1-1.642-3.59,6.242,6.242,0,0,1,.359-2.027l2.155-6.181a9,9,0,0,1-7.054,3.129,12.89,12.89,0,0,1-1.564-.1A4.985,4.985,0,0,1,76,134.136a7.734,7.734,0,0,1-1.2-4.412,10.885,10.885,0,0,1,.41-2.949,10.247,10.247,0,0,1,5.13-6.463,15.584,15.584,0,0,1,7.643-1.8h14.645l-4.616,13.336ZM91.9,122.62H86.439l-1.949,5.514a3.791,3.791,0,0,0-.231,1.232q0,2.487,4.386,2.487Z" transform="translate(-19.176 -21.771)" style="fill:#009245"/><path d="M44.168,110.037a3.659,3.659,0,0,0-3.484-3.753,3.335,3.335,0,0,0-2.121.769,3.335,3.335,0,0,0-2.12-.769,3.623,3.623,0,0,0-3.485,3.738c0,3.99,4.957,6.04,5.168,6.125h0a1.166,1.166,0,0,0,.884,0c2.45-1.013,5.119-3.244,5.158-6.107" transform="translate(-19.176 -21.771)" style="fill:#009245"/></svg>